<mxfile host="65bd71144e" pages="2">
    <diagram name="macro" id="9zHcCeUQqaZ8692WswbY">
        <mxGraphModel dx="831" dy="874" grid="1" gridSize="10" guides="1" tooltips="1" connect="1" arrows="1" fold="1" page="1" pageScale="1" pageWidth="827" pageHeight="1169" math="0" shadow="0">
            <root>
                <mxCell id="0"/>
                <mxCell id="1" parent="0"/>
                <mxCell id="121" value="" style="ellipse;whiteSpace=wrap;html=1;fontSize=12;opacity=70;fillColor=none;strokeWidth=5;" parent="1" vertex="1">
                    <mxGeometry x="350" y="520" width="120" height="120" as="geometry"/>
                </mxCell>
                <mxCell id="A0lSjFTI5e9bqqVm3xAy-101" value="&#10;Dark Persistent Identifier Network&#10;" style="whiteSpace=wrap;strokeWidth=2;verticalAlign=top;fontStyle=1;fontSize=17;fillColor=#d5e8d4;strokeColor=none;rounded=1;opacity=50;container=0;" parent="1" vertex="1">
                    <mxGeometry x="59" y="300" width="710" height="630" as="geometry"/>
                </mxCell>
                <mxCell id="RpSKrlZ48StNRSg9d6U9-43" value="&lt;h1&gt;dARK Overview&lt;/h1&gt;" style="text;html=1;strokeColor=none;fillColor=none;spacing=5;spacingTop=-20;whiteSpace=wrap;overflow=hidden;rounded=0;" parent="1" vertex="1">
                    <mxGeometry x="217.07" y="50" width="225" height="50" as="geometry"/>
                </mxCell>
                <mxCell id="82" style="edgeStyle=none;html=1;fontSize=17;" parent="1" source="69" target="57" edge="1">
                    <mxGeometry relative="1" as="geometry"/>
                </mxCell>
                <mxCell id="83" style="edgeStyle=none;html=1;exitX=0.75;exitY=0;exitDx=0;exitDy=0;fontSize=17;" parent="1" source="69" target="63" edge="1">
                    <mxGeometry relative="1" as="geometry"/>
                </mxCell>
                <mxCell id="84" style="edgeStyle=none;html=1;exitX=0;exitY=0;exitDx=0;exitDy=0;entryX=0.5;entryY=1;entryDx=0;entryDy=0;fontSize=17;" parent="1" source="69" target="45" edge="1">
                    <mxGeometry relative="1" as="geometry"/>
                </mxCell>
                <mxCell id="85" style="edgeStyle=none;html=1;fontSize=17;exitX=1;exitY=0;exitDx=0;exitDy=0;" parent="1" source="69" edge="1">
                    <mxGeometry relative="1" as="geometry">
                        <mxPoint x="550" y="520" as="targetPoint"/>
                    </mxGeometry>
                </mxCell>
                <mxCell id="69" value="Balancer / DNS&amp;nbsp;" style="rounded=1;whiteSpace=wrap;html=1;verticalAlign=top;fillColor=#fa6800;fontColor=#000000;strokeColor=#C73500;arcSize=17;opacity=70;" parent="1" vertex="1">
                    <mxGeometry x="324" y="820" width="176" height="90" as="geometry"/>
                </mxCell>
                <mxCell id="57" value="NREN" style="rounded=1;whiteSpace=wrap;html=1;verticalAlign=top;fillColor=#fad7ac;strokeColor=#b46504;" parent="1" vertex="1">
                    <mxGeometry x="200" y="630" width="150" height="144.62" as="geometry"/>
                </mxCell>
                <mxCell id="58" value="PID &lt;br&gt;Resolver" style="html=1;verticalLabelPosition=bottom;align=center;labelBackgroundColor=none;verticalAlign=top;strokeWidth=2;strokeColor=#000000;shadow=0;dashed=0;shape=mxgraph.ios7.icons.share;fillColor=none;" parent="1" vertex="1">
                    <mxGeometry x="309" y="693.12" width="20" height="26.88" as="geometry"/>
                </mxCell>
                <mxCell id="59" value="ARK&lt;br&gt;Factory" style="html=1;verticalLabelPosition=bottom;align=center;labelBackgroundColor=none;verticalAlign=top;strokeWidth=2;strokeColor=#000000;shadow=0;dashed=0;shape=mxgraph.ios7.icons.down;fillColor=none;" parent="1" vertex="1">
                    <mxGeometry x="220" y="694.62" width="21" height="25.5" as="geometry"/>
                </mxCell>
                <mxCell id="60" value="Services" style="html=1;verticalLabelPosition=bottom;align=center;labelBackgroundColor=none;verticalAlign=top;strokeWidth=3;strokeColor=#000000;shadow=0;dashed=0;shape=mxgraph.ios7.icons.settings;fillColor=none;" parent="1" vertex="1">
                    <mxGeometry x="260" y="694.62" width="30" height="30" as="geometry"/>
                </mxCell>
                <mxCell id="61" value="" style="editableCssRules=path;shape=image;aspect=fixed;image=data:image/svg+xml,PHN2ZyB4bWxucz0iaHR0cDovL3d3dy53My5vcmcvMjAwMC9zdmciIHZpZXdCb3g9IjAgMCAzODQgNTEyIj48IS0tISBGb250IEF3ZXNvbWUgRnJlZSA2LjQuMCBieSBAZm9udGF3ZXNvbWUgLSBodHRwczovL2ZvbnRhd2Vzb21lLmNvbSBMaWNlbnNlIC0gaHR0cHM6Ly9mb250YXdlc29tZS5jb20vbGljZW5zZS9mcmVlIChJY29uczogQ0MgQlkgNC4wLCBGb250czogU0lMIE9GTCAxLjEsIENvZGU6IE1JVCBMaWNlbnNlKSBDb3B5cmlnaHQgMjAyMyBGb250aWNvbnMsIEluYy4gLS0+PHN0eWxlIHR5cGU9InRleHQvY3NzIj5wYXRoIHtmaWxsOiMwMDAwMDA7fTwvc3R5bGU+PHBhdGggZD0iTTQ4IDBDMjEuNSAwIDAgMjEuNSAwIDQ4VjQ2NGMwIDI2LjUgMjEuNSA0OCA0OCA0OGg5NlY0MzJjMC0yNi41IDIxLjUtNDggNDgtNDhzNDggMjEuNSA0OCA0OHY4MGg5NmMyNi41IDAgNDgtMjEuNSA0OC00OFY0OGMwLTI2LjUtMjEuNS00OC00OC00OEg0OHpNNjQgMjQwYzAtOC44IDcuMi0xNiAxNi0xNmgzMmM4LjggMCAxNiA3LjIgMTYgMTZ2MzJjMCA4LjgtNy4yIDE2LTE2IDE2SDgwYy04LjggMC0xNi03LjItMTYtMTZWMjQwem0xMTItMTZoMzJjOC44IDAgMTYgNy4yIDE2IDE2djMyYzAgOC44LTcuMiAxNi0xNiAxNkgxNzZjLTguOCAwLTE2LTcuMi0xNi0xNlYyNDBjMC04LjggNy4yLTE2IDE2LTE2em04MCAxNmMwLTguOCA3LjItMTYgMTYtMTZoMzJjOC44IDAgMTYgNy4yIDE2IDE2djMyYzAgOC44LTcuMiAxNi0xNiAxNkgyNzJjLTguOCAwLTE2LTcuMi0xNi0xNlYyNDB6TTgwIDk2aDMyYzguOCAwIDE2IDcuMiAxNiAxNnYzMmMwIDguOC03LjIgMTYtMTYgMTZIODBjLTguOCAwLTE2LTcuMi0xNi0xNlYxMTJjMC04LjggNy4yLTE2IDE2LTE2em04MCAxNmMwLTguOCA3LjItMTYgMTYtMTZoMzJjOC44IDAgMTYgNy4yIDE2IDE2djMyYzAgOC44LTcuMiAxNi0xNiAxNkgxNzZjLTguOCAwLTE2LTcuMi0xNi0xNlYxMTJ6TTI3MiA5NmgzMmM4LjggMCAxNiA3LjIgMTYgMTZ2MzJjMCA4LjgtNy4yIDE2LTE2IDE2SDI3MmMtOC44IDAtMTYtNy4yLTE2LTE2VjExMmMwLTguOCA3LjItMTYgMTYtMTZ6Ii8+PC9zdmc+;connectable=0;movable=1;verticalLabelPosition=bottom;resizable=1;rotatable=0;cloneable=0;deletable=1;recursiveResize=0;imageBackground=none;verticalAlign=top;hachureGap=4;fontFamily=Helvetica;fontSize=12;" parent="1" vertex="1">
                    <mxGeometry x="260.00372881355923" y="655.62" width="25" height="25" as="geometry"/>
                </mxCell>
                <mxCell id="76" value="ARK Resolver &lt;br&gt;DNS Name" style="html=1;verticalLabelPosition=bottom;align=center;labelBackgroundColor=none;verticalAlign=top;strokeWidth=2;strokeColor=#000000;shadow=0;dashed=0;shape=mxgraph.ios7.icons.share;fillColor=none;" parent="1" vertex="1">
                    <mxGeometry x="404" y="840" width="20" height="28.5" as="geometry"/>
                </mxCell>
                <mxCell id="45" value="Institution&lt;br&gt;" style="rounded=1;whiteSpace=wrap;html=1;verticalAlign=top;fillColor=#fad9d5;strokeColor=#ae4132;" parent="1" vertex="1">
                    <mxGeometry x="197.5" y="370" width="150" height="144.62" as="geometry"/>
                </mxCell>
                <mxCell id="4" value="ARK &lt;br&gt;Resolver" style="html=1;verticalLabelPosition=bottom;align=center;labelBackgroundColor=none;verticalAlign=top;strokeWidth=2;strokeColor=#000000;shadow=0;dashed=0;shape=mxgraph.ios7.icons.share;fillColor=none;" parent="1" vertex="1">
                    <mxGeometry x="307.5" y="433.12" width="20" height="28.5" as="geometry"/>
                </mxCell>
                <mxCell id="6" value="ARK&lt;br&gt;Factory" style="html=1;verticalLabelPosition=bottom;align=center;labelBackgroundColor=none;verticalAlign=top;strokeWidth=2;strokeColor=#000000;shadow=0;dashed=0;shape=mxgraph.ios7.icons.down;fillColor=none;" parent="1" vertex="1">
                    <mxGeometry x="217.5" y="434.62" width="21" height="25.5" as="geometry"/>
                </mxCell>
                <mxCell id="9" value="Services" style="html=1;verticalLabelPosition=bottom;align=center;labelBackgroundColor=none;verticalAlign=top;strokeWidth=3;strokeColor=#000000;shadow=0;dashed=0;shape=mxgraph.ios7.icons.settings;fillColor=none;" parent="1" vertex="1">
                    <mxGeometry x="257.5" y="434.62" width="30" height="30" as="geometry"/>
                </mxCell>
                <mxCell id="RpSKrlZ48StNRSg9d6U9-22" value="" style="editableCssRules=path;shape=image;aspect=fixed;image=data:image/svg+xml,PHN2ZyB4bWxucz0iaHR0cDovL3d3dy53My5vcmcvMjAwMC9zdmciIHZpZXdCb3g9IjAgMCAzODQgNTEyIj48IS0tISBGb250IEF3ZXNvbWUgRnJlZSA2LjQuMCBieSBAZm9udGF3ZXNvbWUgLSBodHRwczovL2ZvbnRhd2Vzb21lLmNvbSBMaWNlbnNlIC0gaHR0cHM6Ly9mb250YXdlc29tZS5jb20vbGljZW5zZS9mcmVlIChJY29uczogQ0MgQlkgNC4wLCBGb250czogU0lMIE9GTCAxLjEsIENvZGU6IE1JVCBMaWNlbnNlKSBDb3B5cmlnaHQgMjAyMyBGb250aWNvbnMsIEluYy4gLS0+PHN0eWxlIHR5cGU9InRleHQvY3NzIj5wYXRoIHtmaWxsOiMwMDAwMDA7fTwvc3R5bGU+PHBhdGggZD0iTTQ4IDBDMjEuNSAwIDAgMjEuNSAwIDQ4VjQ2NGMwIDI2LjUgMjEuNSA0OCA0OCA0OGg5NlY0MzJjMC0yNi41IDIxLjUtNDggNDgtNDhzNDggMjEuNSA0OCA0OHY4MGg5NmMyNi41IDAgNDgtMjEuNSA0OC00OFY0OGMwLTI2LjUtMjEuNS00OC00OC00OEg0OHpNNjQgMjQwYzAtOC44IDcuMi0xNiAxNi0xNmgzMmM4LjggMCAxNiA3LjIgMTYgMTZ2MzJjMCA4LjgtNy4yIDE2LTE2IDE2SDgwYy04LjggMC0xNi03LjItMTYtMTZWMjQwem0xMTItMTZoMzJjOC44IDAgMTYgNy4yIDE2IDE2djMyYzAgOC44LTcuMiAxNi0xNiAxNkgxNzZjLTguOCAwLTE2LTcuMi0xNi0xNlYyNDBjMC04LjggNy4yLTE2IDE2LTE2em04MCAxNmMwLTguOCA3LjItMTYgMTYtMTZoMzJjOC44IDAgMTYgNy4yIDE2IDE2djMyYzAgOC44LTcuMiAxNi0xNiAxNkgyNzJjLTguOCAwLTE2LTcuMi0xNi0xNlYyNDB6TTgwIDk2aDMyYzguOCAwIDE2IDcuMiAxNiAxNnYzMmMwIDguOC03LjIgMTYtMTYgMTZIODBjLTguOCAwLTE2LTcuMi0xNi0xNlYxMTJjMC04LjggNy4yLTE2IDE2LTE2em04MCAxNmMwLTguOCA3LjItMTYgMTYtMTZoMzJjOC44IDAgMTYgNy4yIDE2IDE2djMyYzAgOC44LTcuMiAxNi0xNiAxNkgxNzZjLTguOCAwLTE2LTcuMi0xNi0xNlYxMTJ6TTI3MiA5NmgzMmM4LjggMCAxNiA3LjIgMTYgMTZ2MzJjMCA4LjgtNy4yIDE2LTE2IDE2SDI3MmMtOC44IDAtMTYtNy4yLTE2LTE2VjExMmMwLTguOCA3LjItMTYgMTYtMTZ6Ii8+PC9zdmc+;connectable=0;movable=1;verticalLabelPosition=bottom;resizable=1;rotatable=0;cloneable=0;deletable=1;recursiveResize=0;imageBackground=none;verticalAlign=top;hachureGap=4;fontFamily=Helvetica;fontSize=12;" parent="1" vertex="1">
                    <mxGeometry x="257.50372881355923" y="395.62" width="25" height="25" as="geometry"/>
                </mxCell>
                <mxCell id="51" value="University" style="rounded=1;whiteSpace=wrap;html=1;verticalAlign=top;fillColor=#b0e3e6;strokeColor=#0e8088;" parent="1" vertex="1">
                    <mxGeometry x="480" y="370" width="150" height="144.62" as="geometry"/>
                </mxCell>
                <mxCell id="52" value="ARK&lt;br&gt;Factory" style="html=1;verticalLabelPosition=bottom;align=center;labelBackgroundColor=none;verticalAlign=top;strokeWidth=2;strokeColor=#000000;shadow=0;dashed=0;shape=mxgraph.ios7.icons.share;fillColor=none;" parent="1" vertex="1">
                    <mxGeometry x="590" y="433.12" width="20" height="28.5" as="geometry"/>
                </mxCell>
                <mxCell id="53" value="ARK &lt;br&gt;Resolver" style="html=1;verticalLabelPosition=bottom;align=center;labelBackgroundColor=none;verticalAlign=top;strokeWidth=2;strokeColor=#000000;shadow=0;dashed=0;shape=mxgraph.ios7.icons.down;fillColor=none;" parent="1" vertex="1">
                    <mxGeometry x="500" y="434.62" width="21" height="25.5" as="geometry"/>
                </mxCell>
                <mxCell id="54" value="Services" style="html=1;verticalLabelPosition=bottom;align=center;labelBackgroundColor=none;verticalAlign=top;strokeWidth=3;strokeColor=#000000;shadow=0;dashed=0;shape=mxgraph.ios7.icons.settings;fillColor=none;" parent="1" vertex="1">
                    <mxGeometry x="540" y="434.62" width="30" height="30" as="geometry"/>
                </mxCell>
                <mxCell id="55" value="" style="editableCssRules=path;shape=image;aspect=fixed;image=data:image/svg+xml,PHN2ZyB4bWxucz0iaHR0cDovL3d3dy53My5vcmcvMjAwMC9zdmciIHZpZXdCb3g9IjAgMCAzODQgNTEyIj48IS0tISBGb250IEF3ZXNvbWUgRnJlZSA2LjQuMCBieSBAZm9udGF3ZXNvbWUgLSBodHRwczovL2ZvbnRhd2Vzb21lLmNvbSBMaWNlbnNlIC0gaHR0cHM6Ly9mb250YXdlc29tZS5jb20vbGljZW5zZS9mcmVlIChJY29uczogQ0MgQlkgNC4wLCBGb250czogU0lMIE9GTCAxLjEsIENvZGU6IE1JVCBMaWNlbnNlKSBDb3B5cmlnaHQgMjAyMyBGb250aWNvbnMsIEluYy4gLS0+PHN0eWxlIHR5cGU9InRleHQvY3NzIj5wYXRoIHtmaWxsOiMwMDAwMDA7fTwvc3R5bGU+PHBhdGggZD0iTTQ4IDBDMjEuNSAwIDAgMjEuNSAwIDQ4VjQ2NGMwIDI2LjUgMjEuNSA0OCA0OCA0OGg5NlY0MzJjMC0yNi41IDIxLjUtNDggNDgtNDhzNDggMjEuNSA0OCA0OHY4MGg5NmMyNi41IDAgNDgtMjEuNSA0OC00OFY0OGMwLTI2LjUtMjEuNS00OC00OC00OEg0OHpNNjQgMjQwYzAtOC44IDcuMi0xNiAxNi0xNmgzMmM4LjggMCAxNiA3LjIgMTYgMTZ2MzJjMCA4LjgtNy4yIDE2LTE2IDE2SDgwYy04LjggMC0xNi03LjItMTYtMTZWMjQwem0xMTItMTZoMzJjOC44IDAgMTYgNy4yIDE2IDE2djMyYzAgOC44LTcuMiAxNi0xNiAxNkgxNzZjLTguOCAwLTE2LTcuMi0xNi0xNlYyNDBjMC04LjggNy4yLTE2IDE2LTE2em04MCAxNmMwLTguOCA3LjItMTYgMTYtMTZoMzJjOC44IDAgMTYgNy4yIDE2IDE2djMyYzAgOC44LTcuMiAxNi0xNiAxNkgyNzJjLTguOCAwLTE2LTcuMi0xNi0xNlYyNDB6TTgwIDk2aDMyYzguOCAwIDE2IDcuMiAxNiAxNnYzMmMwIDguOC03LjIgMTYtMTYgMTZIODBjLTguOCAwLTE2LTcuMi0xNi0xNlYxMTJjMC04LjggNy4yLTE2IDE2LTE2em04MCAxNmMwLTguOCA3LjItMTYgMTYtMTZoMzJjOC44IDAgMTYgNy4yIDE2IDE2djMyYzAgOC44LTcuMiAxNi0xNiAxNkgxNzZjLTguOCAwLTE2LTcuMi0xNi0xNlYxMTJ6TTI3MiA5NmgzMmM4LjggMCAxNiA3LjIgMTYgMTZ2MzJjMCA4LjgtNy4yIDE2LTE2IDE2SDI3MmMtOC44IDAtMTYtNy4yLTE2LTE2VjExMmMwLTguOCA3LjItMTYgMTYtMTZ6Ii8+PC9zdmc+;connectable=0;movable=1;verticalLabelPosition=bottom;resizable=1;rotatable=0;cloneable=0;deletable=1;recursiveResize=0;imageBackground=none;verticalAlign=top;hachureGap=4;fontFamily=Helvetica;fontSize=12;" parent="1" vertex="1">
                    <mxGeometry x="540.0037288135593" y="395.62" width="25" height="25" as="geometry"/>
                </mxCell>
                <mxCell id="63" value="National Research Org" style="rounded=1;whiteSpace=wrap;html=1;verticalAlign=top;fillColor=#b1ddf0;strokeColor=#10739e;" parent="1" vertex="1">
                    <mxGeometry x="480" y="630" width="150" height="144.62" as="geometry"/>
                </mxCell>
                <mxCell id="64" value="Ark &lt;br&gt;Factory" style="html=1;verticalLabelPosition=bottom;align=center;labelBackgroundColor=none;verticalAlign=top;strokeWidth=2;strokeColor=#000000;shadow=0;dashed=0;shape=mxgraph.ios7.icons.share;fillColor=none;" parent="1" vertex="1">
                    <mxGeometry x="591" y="693.12" width="20" height="28.5" as="geometry"/>
                </mxCell>
                <mxCell id="65" value="ARK&amp;nbsp;&lt;br&gt;Resolver" style="html=1;verticalLabelPosition=bottom;align=center;labelBackgroundColor=none;verticalAlign=top;strokeWidth=2;strokeColor=#000000;shadow=0;dashed=0;shape=mxgraph.ios7.icons.down;fillColor=none;" parent="1" vertex="1">
                    <mxGeometry x="500" y="694.62" width="21" height="25.5" as="geometry"/>
                </mxCell>
                <mxCell id="66" value="Services" style="html=1;verticalLabelPosition=bottom;align=center;labelBackgroundColor=none;verticalAlign=top;strokeWidth=3;strokeColor=#000000;shadow=0;dashed=0;shape=mxgraph.ios7.icons.settings;fillColor=none;" parent="1" vertex="1">
                    <mxGeometry x="540" y="694.62" width="30" height="30" as="geometry"/>
                </mxCell>
                <mxCell id="67" value="" style="editableCssRules=path;shape=image;aspect=fixed;image=data:image/svg+xml,PHN2ZyB4bWxucz0iaHR0cDovL3d3dy53My5vcmcvMjAwMC9zdmciIHZpZXdCb3g9IjAgMCAzODQgNTEyIj48IS0tISBGb250IEF3ZXNvbWUgRnJlZSA2LjQuMCBieSBAZm9udGF3ZXNvbWUgLSBodHRwczovL2ZvbnRhd2Vzb21lLmNvbSBMaWNlbnNlIC0gaHR0cHM6Ly9mb250YXdlc29tZS5jb20vbGljZW5zZS9mcmVlIChJY29uczogQ0MgQlkgNC4wLCBGb250czogU0lMIE9GTCAxLjEsIENvZGU6IE1JVCBMaWNlbnNlKSBDb3B5cmlnaHQgMjAyMyBGb250aWNvbnMsIEluYy4gLS0+PHN0eWxlIHR5cGU9InRleHQvY3NzIj5wYXRoIHtmaWxsOiMwMDAwMDA7fTwvc3R5bGU+PHBhdGggZD0iTTQ4IDBDMjEuNSAwIDAgMjEuNSAwIDQ4VjQ2NGMwIDI2LjUgMjEuNSA0OCA0OCA0OGg5NlY0MzJjMC0yNi41IDIxLjUtNDggNDgtNDhzNDggMjEuNSA0OCA0OHY4MGg5NmMyNi41IDAgNDgtMjEuNSA0OC00OFY0OGMwLTI2LjUtMjEuNS00OC00OC00OEg0OHpNNjQgMjQwYzAtOC44IDcuMi0xNiAxNi0xNmgzMmM4LjggMCAxNiA3LjIgMTYgMTZ2MzJjMCA4LjgtNy4yIDE2LTE2IDE2SDgwYy04LjggMC0xNi03LjItMTYtMTZWMjQwem0xMTItMTZoMzJjOC44IDAgMTYgNy4yIDE2IDE2djMyYzAgOC44LTcuMiAxNi0xNiAxNkgxNzZjLTguOCAwLTE2LTcuMi0xNi0xNlYyNDBjMC04LjggNy4yLTE2IDE2LTE2em04MCAxNmMwLTguOCA3LjItMTYgMTYtMTZoMzJjOC44IDAgMTYgNy4yIDE2IDE2djMyYzAgOC44LTcuMiAxNi0xNiAxNkgyNzJjLTguOCAwLTE2LTcuMi0xNi0xNlYyNDB6TTgwIDk2aDMyYzguOCAwIDE2IDcuMiAxNiAxNnYzMmMwIDguOC03LjIgMTYtMTYgMTZIODBjLTguOCAwLTE2LTcuMi0xNi0xNlYxMTJjMC04LjggNy4yLTE2IDE2LTE2em04MCAxNmMwLTguOCA3LjItMTYgMTYtMTZoMzJjOC44IDAgMTYgNy4yIDE2IDE2djMyYzAgOC44LTcuMiAxNi0xNiAxNkgxNzZjLTguOCAwLTE2LTcuMi0xNi0xNlYxMTJ6TTI3MiA5NmgzMmM4LjggMCAxNiA3LjIgMTYgMTZ2MzJjMCA4LjgtNy4yIDE2LTE2IDE2SDI3MmMtOC44IDAtMTYtNy4yLTE2LTE2VjExMmMwLTguOCA3LjItMTYgMTYtMTZ6Ii8+PC9zdmc+;connectable=0;movable=1;verticalLabelPosition=bottom;resizable=1;rotatable=0;cloneable=0;deletable=1;recursiveResize=0;imageBackground=none;verticalAlign=top;hachureGap=4;fontFamily=Helvetica;fontSize=12;" parent="1" vertex="1">
                    <mxGeometry x="540.0037288135593" y="655.62" width="25" height="25" as="geometry"/>
                </mxCell>
                <mxCell id="87" style="edgeStyle=none;html=1;entryX=0.5;entryY=1;entryDx=0;entryDy=0;fontSize=17;" parent="1" source="86" target="69" edge="1">
                    <mxGeometry relative="1" as="geometry"/>
                </mxCell>
                <mxCell id="86" value="ARK Global Resolver" style="rounded=1;whiteSpace=wrap;html=1;fontSize=17;fillColor=#e3c800;fontColor=#000000;strokeColor=#B09500;" parent="1" vertex="1">
                    <mxGeometry x="314" y="980" width="196" height="70" as="geometry"/>
                </mxCell>
                <mxCell id="90" style="edgeStyle=none;html=1;fontSize=9;entryX=-0.206;entryY=0.675;entryDx=0;entryDy=0;entryPerimeter=0;" parent="1" source="89" target="59" edge="1">
                    <mxGeometry relative="1" as="geometry">
                        <mxPoint x="200" y="700" as="targetPoint"/>
                    </mxGeometry>
                </mxCell>
                <mxCell id="89" value="Repository, Journal, Preprint, CRIS&lt;br style=&quot;font-size: 9px;&quot;&gt;" style="rounded=1;whiteSpace=wrap;html=1;fontSize=9;fillColor=#f5f5f5;gradientColor=#b3b3b3;strokeColor=#666666;" parent="1" vertex="1">
                    <mxGeometry x="80" y="620" width="90" height="49.38" as="geometry"/>
                </mxCell>
                <mxCell id="92" style="edgeStyle=none;html=1;fontSize=9;" parent="1" source="91" target="6" edge="1">
                    <mxGeometry relative="1" as="geometry"/>
                </mxCell>
                <mxCell id="91" value="Repository, Journal, Preprint, CRIS&lt;br style=&quot;font-size: 9px;&quot;&gt;" style="rounded=1;whiteSpace=wrap;html=1;fontSize=9;fillColor=#f5f5f5;gradientColor=#b3b3b3;strokeColor=#666666;" parent="1" vertex="1">
                    <mxGeometry x="80" y="422.68" width="90" height="49.38" as="geometry"/>
                </mxCell>
                <mxCell id="94" style="edgeStyle=none;html=1;entryX=1.034;entryY=0.551;entryDx=0;entryDy=0;entryPerimeter=0;fontSize=9;" parent="1" source="93" target="52" edge="1">
                    <mxGeometry relative="1" as="geometry"/>
                </mxCell>
                <mxCell id="93" value="Repository, Journal, Preprint, CRIS&lt;br style=&quot;font-size: 9px;&quot;&gt;" style="rounded=1;whiteSpace=wrap;html=1;fontSize=9;fillColor=#f5f5f5;gradientColor=#b3b3b3;strokeColor=#666666;" parent="1" vertex="1">
                    <mxGeometry x="670" y="422.67999999999995" width="90" height="49.38" as="geometry"/>
                </mxCell>
                <mxCell id="96" style="edgeStyle=none;html=1;entryX=0.984;entryY=0.587;entryDx=0;entryDy=0;entryPerimeter=0;fontSize=9;exitX=0;exitY=0.75;exitDx=0;exitDy=0;" parent="1" source="95" target="64" edge="1">
                    <mxGeometry relative="1" as="geometry"/>
                </mxCell>
                <mxCell id="95" value="Repository, Journal, Preprint, CRIS&lt;br style=&quot;font-size: 9px;&quot;&gt;" style="rounded=1;whiteSpace=wrap;html=1;fontSize=9;fillColor=#f5f5f5;gradientColor=#b3b3b3;strokeColor=#666666;" parent="1" vertex="1">
                    <mxGeometry x="660" y="620" width="90" height="50" as="geometry"/>
                </mxCell>
                <mxCell id="100" style="edgeStyle=none;html=1;entryX=-0.063;entryY=0.675;entryDx=0;entryDy=0;entryPerimeter=0;fontSize=17;" parent="1" source="97" target="59" edge="1">
                    <mxGeometry relative="1" as="geometry"/>
                </mxCell>
                <mxCell id="97" value="Repository, Journal, Preprint, CRIS&lt;br style=&quot;font-size: 9px;&quot;&gt;" style="rounded=1;whiteSpace=wrap;html=1;fontSize=9;fillColor=#f5f5f5;gradientColor=#b3b3b3;strokeColor=#666666;" parent="1" vertex="1">
                    <mxGeometry x="80" y="684.93" width="90" height="49.38" as="geometry"/>
                </mxCell>
                <mxCell id="99" style="edgeStyle=none;html=1;fontSize=17;" parent="1" source="98" target="59" edge="1">
                    <mxGeometry relative="1" as="geometry"/>
                </mxCell>
                <mxCell id="98" value="Repository, Journal, Preprint, CRIS&lt;br style=&quot;font-size: 9px;&quot;&gt;" style="rounded=1;whiteSpace=wrap;html=1;fontSize=9;fillColor=#f5f5f5;gradientColor=#b3b3b3;strokeColor=#666666;" parent="1" vertex="1">
                    <mxGeometry x="80" y="750" width="90" height="49.38" as="geometry"/>
                </mxCell>
                <mxCell id="105" style="edgeStyle=none;html=1;entryX=1.184;entryY=0.587;entryDx=0;entryDy=0;entryPerimeter=0;fontSize=17;" parent="1" source="103" target="64" edge="1">
                    <mxGeometry relative="1" as="geometry"/>
                </mxCell>
                <mxCell id="103" value="Repository, Journal, Preprint, CRIS&lt;br style=&quot;font-size: 9px;&quot;&gt;" style="rounded=1;whiteSpace=wrap;html=1;fontSize=9;fillColor=#f5f5f5;gradientColor=#b3b3b3;strokeColor=#666666;" parent="1" vertex="1">
                    <mxGeometry x="660" y="680.62" width="90" height="49.38" as="geometry"/>
                </mxCell>
                <mxCell id="106" style="edgeStyle=none;html=1;entryX=0.984;entryY=0.516;entryDx=0;entryDy=0;entryPerimeter=0;fontSize=17;" parent="1" source="104" target="64" edge="1">
                    <mxGeometry relative="1" as="geometry"/>
                </mxCell>
                <mxCell id="104" value="Repository, Journal, Preprint, CRIS&lt;br style=&quot;font-size: 9px;&quot;&gt;" style="rounded=1;whiteSpace=wrap;html=1;fontSize=9;fillColor=#f5f5f5;gradientColor=#b3b3b3;strokeColor=#666666;" parent="1" vertex="1">
                    <mxGeometry x="660" y="740" width="90" height="49.38" as="geometry"/>
                </mxCell>
                <mxCell id="116" value="Blockchain &#10;Node&#10;" style="editableCssRules=path;shape=image;aspect=fixed;image=data:image/svg+xml,PHN2ZyB4bWxucz0iaHR0cDovL3d3dy53My5vcmcvMjAwMC9zdmciIHZpZXdCb3g9IjAgMCA0NDggNTEyIj48IS0tISBGb250IEF3ZXNvbWUgRnJlZSA2LjQuMCBieSBAZm9udGF3ZXNvbWUgLSBodHRwczovL2ZvbnRhd2Vzb21lLmNvbSBMaWNlbnNlIC0gaHR0cHM6Ly9mb250YXdlc29tZS5jb20vbGljZW5zZS9mcmVlIChJY29uczogQ0MgQlkgNC4wLCBGb250czogU0lMIE9GTCAxLjEsIENvZGU6IE1JVCBMaWNlbnNlKSBDb3B5cmlnaHQgMjAyMyBGb250aWNvbnMsIEluYy4gLS0+PHN0eWxlIHR5cGU9InRleHQvY3NzIj5wYXRoIHtmaWxsOiMwMDAwMDA7fTwvc3R5bGU+PHBhdGggZD0iTTM2OCA4MGgzMnYzMkgzNjhWODB6TTM1MiAzMmMtMTcuNyAwLTMyIDE0LjMtMzIgMzJIMTI4YzAtMTcuNy0xNC4zLTMyLTMyLTMySDMyQzE0LjMgMzIgMCA0Ni4zIDAgNjR2NjRjMCAxNy43IDE0LjMgMzIgMzIgMzJWMzUyYy0xNy43IDAtMzIgMTQuMy0zMiAzMnY2NGMwIDE3LjcgMTQuMyAzMiAzMiAzMkg5NmMxNy43IDAgMzItMTQuMyAzMi0zMkgzMjBjMCAxNy43IDE0LjMgMzIgMzIgMzJoNjRjMTcuNyAwIDMyLTE0LjMgMzItMzJWMzg0YzAtMTcuNy0xNC4zLTMyLTMyLTMyVjE2MGMxNy43IDAgMzItMTQuMyAzMi0zMlY2NGMwLTE3LjctMTQuMy0zMi0zMi0zMkgzNTJ6TTk2IDE2MGMxNy43IDAgMzItMTQuMyAzMi0zMkgzMjBjMCAxNy43IDE0LjMgMzIgMzIgMzJWMzUyYy0xNy43IDAtMzIgMTQuMy0zMiAzMkgxMjhjMC0xNy43LTE0LjMtMzItMzItMzJWMTYwek00OCA0MDBIODB2MzJINDhWNDAwem0zMjAgMzJWNDAwaDMydjMySDM2OHpNNDggMTEyVjgwSDgwdjMySDQ4eiIvPjwvc3ZnPg==;connectable=0;movable=1;verticalLabelPosition=bottom;resizable=1;rotatable=0;cloneable=0;deletable=1;recursiveResize=0;imageBackground=none;verticalAlign=top;rounded=1;fontStyle=1;fontSize=12;" parent="1" vertex="1">
                    <mxGeometry x="330" y="600" width="51.92" height="51.92" as="geometry"/>
                </mxCell>
                <mxCell id="118" value="Blockchain &#10;Node&#10;" style="editableCssRules=path;shape=image;aspect=fixed;image=data:image/svg+xml,PHN2ZyB4bWxucz0iaHR0cDovL3d3dy53My5vcmcvMjAwMC9zdmciIHZpZXdCb3g9IjAgMCA0NDggNTEyIj48IS0tISBGb250IEF3ZXNvbWUgRnJlZSA2LjQuMCBieSBAZm9udGF3ZXNvbWUgLSBodHRwczovL2ZvbnRhd2Vzb21lLmNvbSBMaWNlbnNlIC0gaHR0cHM6Ly9mb250YXdlc29tZS5jb20vbGljZW5zZS9mcmVlIChJY29uczogQ0MgQlkgNC4wLCBGb250czogU0lMIE9GTCAxLjEsIENvZGU6IE1JVCBMaWNlbnNlKSBDb3B5cmlnaHQgMjAyMyBGb250aWNvbnMsIEluYy4gLS0+PHN0eWxlIHR5cGU9InRleHQvY3NzIj5wYXRoIHtmaWxsOiMwMDAwMDA7fTwvc3R5bGU+PHBhdGggZD0iTTM2OCA4MGgzMnYzMkgzNjhWODB6TTM1MiAzMmMtMTcuNyAwLTMyIDE0LjMtMzIgMzJIMTI4YzAtMTcuNy0xNC4zLTMyLTMyLTMySDMyQzE0LjMgMzIgMCA0Ni4zIDAgNjR2NjRjMCAxNy43IDE0LjMgMzIgMzIgMzJWMzUyYy0xNy43IDAtMzIgMTQuMy0zMiAzMnY2NGMwIDE3LjcgMTQuMyAzMiAzMiAzMkg5NmMxNy43IDAgMzItMTQuMyAzMi0zMkgzMjBjMCAxNy43IDE0LjMgMzIgMzIgMzJoNjRjMTcuNyAwIDMyLTE0LjMgMzItMzJWMzg0YzAtMTcuNy0xNC4zLTMyLTMyLTMyVjE2MGMxNy43IDAgMzItMTQuMyAzMi0zMlY2NGMwLTE3LjctMTQuMy0zMi0zMi0zMkgzNTJ6TTk2IDE2MGMxNy43IDAgMzItMTQuMyAzMi0zMkgzMjBjMCAxNy43IDE0LjMgMzIgMzIgMzJWMzUyYy0xNy43IDAtMzIgMTQuMy0zMiAzMkgxMjhjMC0xNy43LTE0LjMtMzItMzItMzJWMTYwek00OCA0MDBIODB2MzJINDhWNDAwem0zMjAgMzJWNDAwaDMydjMySDM2OHpNNDggMTEyVjgwSDgwdjMySDQ4eiIvPjwvc3ZnPg==;connectable=0;movable=1;verticalLabelPosition=bottom;resizable=1;rotatable=0;cloneable=0;deletable=1;recursiveResize=0;imageBackground=none;verticalAlign=top;rounded=1;fontStyle=1;fontSize=12;" parent="1" vertex="1">
                    <mxGeometry x="329" y="500" width="51.92" height="51.92" as="geometry"/>
                </mxCell>
                <mxCell id="119" value="Blockchain &#10;Node&#10;" style="editableCssRules=path;shape=image;aspect=fixed;image=data:image/svg+xml,PHN2ZyB4bWxucz0iaHR0cDovL3d3dy53My5vcmcvMjAwMC9zdmciIHZpZXdCb3g9IjAgMCA0NDggNTEyIj48IS0tISBGb250IEF3ZXNvbWUgRnJlZSA2LjQuMCBieSBAZm9udGF3ZXNvbWUgLSBodHRwczovL2ZvbnRhd2Vzb21lLmNvbSBMaWNlbnNlIC0gaHR0cHM6Ly9mb250YXdlc29tZS5jb20vbGljZW5zZS9mcmVlIChJY29uczogQ0MgQlkgNC4wLCBGb250czogU0lMIE9GTCAxLjEsIENvZGU6IE1JVCBMaWNlbnNlKSBDb3B5cmlnaHQgMjAyMyBGb250aWNvbnMsIEluYy4gLS0+PHN0eWxlIHR5cGU9InRleHQvY3NzIj5wYXRoIHtmaWxsOiMwMDAwMDA7fTwvc3R5bGU+PHBhdGggZD0iTTM2OCA4MGgzMnYzMkgzNjhWODB6TTM1MiAzMmMtMTcuNyAwLTMyIDE0LjMtMzIgMzJIMTI4YzAtMTcuNy0xNC4zLTMyLTMyLTMySDMyQzE0LjMgMzIgMCA0Ni4zIDAgNjR2NjRjMCAxNy43IDE0LjMgMzIgMzIgMzJWMzUyYy0xNy43IDAtMzIgMTQuMy0zMiAzMnY2NGMwIDE3LjcgMTQuMyAzMiAzMiAzMkg5NmMxNy43IDAgMzItMTQuMyAzMi0zMkgzMjBjMCAxNy43IDE0LjMgMzIgMzIgMzJoNjRjMTcuNyAwIDMyLTE0LjMgMzItMzJWMzg0YzAtMTcuNy0xNC4zLTMyLTMyLTMyVjE2MGMxNy43IDAgMzItMTQuMyAzMi0zMlY2NGMwLTE3LjctMTQuMy0zMi0zMi0zMkgzNTJ6TTk2IDE2MGMxNy43IDAgMzItMTQuMyAzMi0zMkgzMjBjMCAxNy43IDE0LjMgMzIgMzIgMzJWMzUyYy0xNy43IDAtMzIgMTQuMy0zMiAzMkgxMjhjMC0xNy43LTE0LjMtMzItMzItMzJWMTYwek00OCA0MDBIODB2MzJINDhWNDAwem0zMjAgMzJWNDAwaDMydjMySDM2OHpNNDggMTEyVjgwSDgwdjMySDQ4eiIvPjwvc3ZnPg==;connectable=0;movable=1;verticalLabelPosition=bottom;resizable=1;rotatable=0;cloneable=0;deletable=1;recursiveResize=0;imageBackground=none;verticalAlign=top;rounded=1;fontStyle=1;fontSize=12;" parent="1" vertex="1">
                    <mxGeometry x="442.07" y="500" width="51.92" height="51.92" as="geometry"/>
                </mxCell>
                <mxCell id="120" value="Blockchain &#10;Node&#10;" style="editableCssRules=path;shape=image;aspect=fixed;image=data:image/svg+xml,PHN2ZyB4bWxucz0iaHR0cDovL3d3dy53My5vcmcvMjAwMC9zdmciIHZpZXdCb3g9IjAgMCA0NDggNTEyIj48IS0tISBGb250IEF3ZXNvbWUgRnJlZSA2LjQuMCBieSBAZm9udGF3ZXNvbWUgLSBodHRwczovL2ZvbnRhd2Vzb21lLmNvbSBMaWNlbnNlIC0gaHR0cHM6Ly9mb250YXdlc29tZS5jb20vbGljZW5zZS9mcmVlIChJY29uczogQ0MgQlkgNC4wLCBGb250czogU0lMIE9GTCAxLjEsIENvZGU6IE1JVCBMaWNlbnNlKSBDb3B5cmlnaHQgMjAyMyBGb250aWNvbnMsIEluYy4gLS0+PHN0eWxlIHR5cGU9InRleHQvY3NzIj5wYXRoIHtmaWxsOiMwMDAwMDA7fTwvc3R5bGU+PHBhdGggZD0iTTM2OCA4MGgzMnYzMkgzNjhWODB6TTM1MiAzMmMtMTcuNyAwLTMyIDE0LjMtMzIgMzJIMTI4YzAtMTcuNy0xNC4zLTMyLTMyLTMySDMyQzE0LjMgMzIgMCA0Ni4zIDAgNjR2NjRjMCAxNy43IDE0LjMgMzIgMzIgMzJWMzUyYy0xNy43IDAtMzIgMTQuMy0zMiAzMnY2NGMwIDE3LjcgMTQuMyAzMiAzMiAzMkg5NmMxNy43IDAgMzItMTQuMyAzMi0zMkgzMjBjMCAxNy43IDE0LjMgMzIgMzIgMzJoNjRjMTcuNyAwIDMyLTE0LjMgMzItMzJWMzg0YzAtMTcuNy0xNC4zLTMyLTMyLTMyVjE2MGMxNy43IDAgMzItMTQuMyAzMi0zMlY2NGMwLTE3LjctMTQuMy0zMi0zMi0zMkgzNTJ6TTk2IDE2MGMxNy43IDAgMzItMTQuMyAzMi0zMkgzMjBjMCAxNy43IDE0LjMgMzIgMzIgMzJWMzUyYy0xNy43IDAtMzIgMTQuMy0zMiAzMkgxMjhjMC0xNy43LTE0LjMtMzItMzItMzJWMTYwek00OCA0MDBIODB2MzJINDhWNDAwem0zMjAgMzJWNDAwaDMydjMySDM2OHpNNDggMTEyVjgwSDgwdjMySDQ4eiIvPjwvc3ZnPg==;connectable=0;movable=1;verticalLabelPosition=bottom;resizable=1;rotatable=0;cloneable=0;deletable=1;recursiveResize=0;imageBackground=none;verticalAlign=top;rounded=1;fontStyle=1;fontSize=12;" parent="1" vertex="1">
                    <mxGeometry x="442.07" y="600" width="51.92" height="51.92" as="geometry"/>
                </mxCell>
            </root>
        </mxGraphModel>
    </diagram>
</mxfile>